# xmcd
#
# Track frame offsets:
#	150
#	15643
#	33103
#	50758
#	64294
#	77077
#	91684
#	105834
#	122650
#	141524
#	156278
#	168141
#	182854
#	196844
#	209517
#	225236
#	241413
#	256377
#	270214
#	285324
#	299709
#
# Disc length: 4215 seconds
#
# Revision: 1
# Processed by: cddbd v1.5.1PL0 Copyright (c) Steve Scherf et al.
# Submitted via: audiograbber 1.83.01
#
DISCID=1e107515
DTITLE=Various Artist - RC32
DYEAR=1995
DGENRE=Country
TTITLE0=Tim McGraw - I Like It I Love It
TTITLE1=Patty Loveless - Halfway Down
TTITLE2=Rhett Akins - That Ain't My Truck
TTITLE3=Garth Brooks - She's Every Woman
TTITLE4=Ty England - Should've Asked Her Faster
TTITLE5=Terri Clark - Better Things To Do
TTITLE6=John Michael Montgomery - No Man's Land
TTITLE7=Blackhawk - I'm Not Strong Enough To Say No
TTITLE8=Collin Raye - One Boy One Girl
TTITLE9=Faith Hill - Let's Go To Vegas
TTITLE10=Wade Hayes - Don't Stop
TTITLE11=David Lee Murphy - Dust On The Bottle
TTITLE12=Trisha Yearwood - I Wanna Go Too Far
TTITLE13=Clint Black - One Emotion
TTITLE14=Ty Herndon - I Want My Goodbye Back
TTITLE15=Sawyer Brown - (This Thing Called) Wantin' And Havin' It All
TTITLE16=Martina McBride - Safe In The Arms Of Love
TTITLE17=Daryle Singletary - I Let Her Lie
TTITLE18=John Berry - I Think About It All The Time
TTITLE19=Tracy Lawrence - If The World Had A Front Porch
TTITLE20=Toby Keith - Big Ol' Truck
EXTD=
EXTT0=
EXTT1=
EXTT2=
EXTT3=
EXTT4=
EXTT5=
EXTT6=
EXTT7=
EXTT8=
EXTT9=
EXTT10=
EXTT11=
EXTT12=
EXTT13=
EXTT14=
EXTT15=
EXTT16=
EXTT17=
EXTT18=
EXTT19=
EXTT20=
PLAYORDER=
